<svg width="36" height="44" fill="none" xmlns="http://www.w3.org/2000/svg"><mask id="a" style="mask-type:luminance" maskUnits="userSpaceOnUse" x="0" y="0" width="36" height="44"><path d="M32 2H4a2 2 0 0 0-2 2v36a2 2 0 0 0 2 2h28a2 2 0 0 0 2-2V4a2 2 0 0 0-2-2Z" stroke="#fff" stroke-width="4" stroke-linecap="round" stroke-linejoin="round"/><path d="M10 2h9v16l-4.5-4-4.5 4V2Z" fill="#fff" stroke="#fff" stroke-width="4" stroke-linecap="round" stroke-linejoin="round"/><path d="M10 26h10m-10 6h16" stroke="#fff" stroke-width="4" stroke-linecap="round"/></mask><g mask="url(#a)"><path d="M-6-2h48v48H-6V-2Z" fill="#000"/></g></svg>