<svg width="22" height="20" fill="none" xmlns="http://www.w3.org/2000/svg"><path d="M7 16.72C5.339 18.134 3.82 19 1 19c1-1 2.27-2.35 2.801-4.447C2.067 13.114 1 11.157 1 9c0-4.418 4.477-8 10-8 5.1 0 9.308 3.054 9.923 7" stroke="#000" stroke-width="2" stroke-linecap="round" stroke-linejoin="round"/><path d="M15 17.889c-3.314 0-6-1.99-6-4.445C9 10.99 11.686 9 15 9s6 1.99 6 4.444c0 1.199-.64 2.286-1.68 3.085.317 1.165 1.08 1.915 1.68 2.471-1.8 0-2.716-.544-3.792-1.422-.684.2-1.428.311-2.208.311Z" stroke="#000" stroke-width="2" stroke-linecap="round" stroke-linejoin="round"/></svg>