<svg width="365" height="170" fill="none" xmlns="http://www.w3.org/2000/svg"><path d="M120.53 124h-9.9V54.15H86.1v-8.69h58.85v8.69h-24.42V124Zm87.325 0h-9.9V54.15h-24.86c-.514 4.033-1.064 8.287-1.65 12.76-.587 4.4-1.21 8.763-1.87 13.09a701.384 701.384 0 0 1-1.76 12.21c-.587 3.813-1.174 7.15-1.76 10.01-.954 4.913-2.127 9.093-3.52 12.54-1.394 3.447-3.264 6.05-5.61 7.81-2.274 1.76-5.28 2.64-9.02 2.64-1.247 0-2.53-.147-3.85-.44-1.247-.22-2.347-.513-3.3-.88v-8.25c.806.367 1.723.697 2.75.99 1.026.22 2.126.33 3.3.33 2.2 0 3.923-.88 5.17-2.64 1.32-1.833 2.346-4.07 3.08-6.71a115.2 115.2 0 0 0 1.87-8.03c.44-2.127.953-4.95 1.54-8.47.586-3.593 1.21-7.773 1.87-12.54a727.444 727.444 0 0 0 2.2-15.51 816.197 816.197 0 0 0 2.31-17.6h43.01V124Zm67.76-60.17c0 5.353-1.686 9.607-5.06 12.76-3.373 3.08-7.883 5.06-13.53 5.94v.44c6.6.88 11.624 2.933 15.07 6.16 3.447 3.227 5.17 7.443 5.17 12.65 0 4.62-1.173 8.69-3.52 12.21-2.346 3.447-5.866 6.16-10.56 8.14-4.693 1.98-10.56 2.97-17.6 2.97-4.253 0-8.323-.33-12.21-.99-3.813-.587-7.37-1.687-10.67-3.3v-9.02a53.52 53.52 0 0 0 7.26 2.86c2.64.733 5.28 1.32 7.92 1.76 2.64.367 5.17.55 7.59.55 7.04 0 12.357-1.32 15.95-3.96 3.667-2.64 5.5-6.38 5.5-11.22 0-4.987-2.126-8.617-6.38-10.89-4.253-2.273-10.193-3.41-17.82-3.41h-11.22v-8.25h10.67c5.207 0 9.497-.587 12.87-1.76 3.447-1.173 6.014-2.823 7.7-4.95 1.76-2.2 2.64-4.767 2.64-7.7 0-3.96-1.466-7.003-4.4-9.13-2.933-2.127-6.746-3.19-11.44-3.19-4.913 0-9.02.623-12.32 1.87-3.226 1.247-6.38 2.86-9.46 4.84l-4.73-6.71c2.054-1.54 4.4-2.897 7.04-4.07 2.714-1.247 5.72-2.237 9.02-2.97 3.3-.733 6.82-1.1 10.56-1.1 5.647 0 10.377.843 14.19 2.53 3.887 1.687 6.82 3.997 8.8 6.93 1.98 2.86 2.97 6.197 2.97 10.01Z" fill="#fff"/><path fill-rule="evenodd" clip-rule="evenodd" d="M182.5 170C283.292 170 365 131.944 365 85S283.292 0 182.5 0 0 38.056 0 85s81.708 85 182.5 85Zm0-14.676c84.054 0 152.193-31.759 152.193-70.936 0-39.176-68.139-70.935-152.193-70.935-84.054 0-152.193 31.759-152.193 70.935 0 39.177 68.139 70.936 152.193 70.936Z" fill="#D9D9D9"/></svg>