<svg width="43" height="46" fill="none" xmlns="http://www.w3.org/2000/svg"><g clip-path="url(#a)" fill-rule="evenodd" clip-rule="evenodd"><path d="M21.356 42.572 3.091 32.877v-19.81c1.543-.817 3-1.6 4.592-2.435.437-.228.599-.375 1.074-.61l8.054-4.31c.429-.213.704-.337 1.128-.559l3.417-1.923c.367.194.75.378 1.124.561 3.528 1.75 7.936 4.37 11.52 6.184.411.21.774.371 1.221.606l2.264 1.249c.405.256.748.403 1.2.627.412.204.849.511 1.218.61v19.67c-.79.417-1.452.797-2.296 1.216l-8.054 4.309c-.501.25-.759.411-1.173.654-.336.199-.765.388-1.12.565-.46.226-.72.422-1.17.657l-2.295 1.217c-.452.226-.795.369-1.2.625-.262.166-.908.59-1.237.59l-.002.002ZM0 11.521v22.901c.424.099.358.105.676.31.234.149.366.213.637.347 3.373 1.671 7.238 3.974 10.631 5.666.233.118.388.184.657.327l6.041 3.231c.33.173.354.226.61.376l1.405.7c.895.455.452.74 2.02-.223l2.661-1.413c.516-.256.921-.427 1.386-.72l16.129-8.6V11.38c-.546-.128-.866-.369-1.32-.648L21.356-.001l-.61.375c-2.095 1.03-5.107 2.844-7.305 3.933-1.01.5-1.795.972-2.763 1.452-2.353 1.166-5.449 3.008-7.96 4.263L.002 11.521H0Z" fill="#fff"/><path d="M3.654 13.488h35.688l-17.77-9.627-.075-.066-14.52 7.822c-.569.281-3.065 1.517-3.325 1.873l.002-.002ZM25.227 36.761c0-1.17.367-.748.553-1.213.238-2.27-.356-1.904 1.986-1.904l.084 2.045c.364.388.279.283.279.987l-.405.012-.194-.55-1.53-.01-.154.597-.616.038-.003-.002Zm-7.184-3.12.734.012.942 2.458-.663.008-.23-.607h-.84l-.262.61c-.037.083-.386-.035-.685-.065l1.006-2.417h-.002Zm4.616 1.626c-.448-2.036 2.255-2.151 2.617-.821.55 2.023-2.297 2.272-2.617.82Zm-2.607.852-.047-2.485c.626-.022 2.477-.175 2.05.936l-.183.326c.343.206.41.14.399.733-.463.665-1.188.465-2.22.488v.002Zm-5.24-2.035c.179-.934 2.914-.585 1.684.718 1.44.976-1 2.04-1.848.9.413-.145.443.238 1.078.208.527-.025.844-.385.463-.84l-.904-.19c-1.192-.127 1.015-.044.963-.83-.48-.286-.967-.107-1.434.036l-.002-.002Zm6.685 7.925 2.202-1.168c.435-.228.599-.375 1.074-.612l13.3-7.073c.25-.145.207-.158.517-.326l.61-.375H3.651l5.478 2.952c.386.224.604.371 1.08.608l11.287 5.995ZM4.637 30.912l8.991-11.52-.002 10.539c-.012 1.155-.149 1.123.985 1.123.324 0 .422-.098.422-.422V15.318c0-.538.043-.052-.14-.422-.314.112-.216.08-.405.298l-2.266 3.072c-.408.582-2.256 3.238-2.667 3.515v-6.883H4.637v16.016-.002ZM15.455 23.325h15.878v7.725h4.494v-7.725h2.53v-1.546H15.455v1.546Z" fill="#fff"/><path d="m25.168 28.922-.021-3.346c2.332 0 2.95-.352 2.98 1.255.045 2.563-.18 2.091-2.957 2.091h-.002Zm-4.076-3.346.002 3.346c-2.115 0-2.959.559-2.959-1.664 0-2.254.814-1.682 2.957-1.682Zm-.017-.708H16.86c-1.74 0-1.405 2.01-1.405 3.372 0 1.934 3.245 1.405 5.62 1.405v1.405h4.074v-1.405c6.135 0 5.619.44 5.619-3.513 0-.757-.695-1.264-1.405-1.264H25.15v-1.124h-4.074v1.124ZM23.978 14.757l-.094 6.461h1.265l.14-2.669.576 2.588 1.032.062.469-2.581.17 2.6H28.8l-.036-6.474-1.51.01-.841 2.951h-.14l-.845-2.95-1.452.002h.002Z" fill="#fff"/><path d="m21.925 20.097-.008-3.94.422-.002v3.946l-.414-.004Zm-3.24-4.922v6.041h1.405l-.064-2.895.514.002c0 1.987-.326 3.032 1.658 3.032 2.098 0 1.546-1.441 1.546-5.338 0-1.637-3.232-1.92-3.232.281v.983h-.422v-2.528c-1.006 0-1.405-.139-1.405.422ZM6.323 31.05l5.9-.281V23.04c-.398.292-4.497 6.012-5.173 6.91-.386.513-.608.658-.727 1.1ZM36.635 18.622l.305.034c0 .422.01 1.153.01 1.577h-.281l-.036-1.611h.002Zm-1.369 2.594c3.475 0 3.091.384 3.091-3.091 0-.95-.885-.983-1.686-.983 0-2.765.318-2.387-1.405-2.387v6.463-.002ZM28.943 15.175v6.041h2.81v-.842h-1.264v-2.108h1.123c0-1.1.111-.983-1.123-.983v-1.546h1.264c0-1.213.275-.982-2.388-.982-.324 0-.422.098-.422.422v-.002ZM15.596 14.904v.834h.701v5.478h1.546v-5.478h.704l-.003-.821-2.948-.013ZM23.26 35.448c.648 1.002 1.628.744 1.366-.983-.678-1.117-1.782-.252-1.366.983ZM27.257 35.844V33.99h-.876c-.039.62-.062 1.358-.243 1.835l1.119.02ZM20.934 35.844c1.177 0 1.138-.859.002-.859h-.454v.86h.454-.002ZM20.482 34.719c.695-.002 1.236.106 1.083-.633-.394-.258-.446-.17-1.047-.177l-.036.81ZM17.888 35.214l.968.038-.435-1.228-.533 1.19Z" fill="#fff"/><path d="M27.257 35.844c-.113-.183-.205-1.398 0-1.854h-.416c-.232.017-.185-.013-.18 0-.033.008-.01.02-.035.028-.026.008-.213-.05-.245-.028h.876v1.854Z" fill="#33456C"/><path d="M33.194 21.216h-1.3v-6.464c.75 0 1.114-.063 1.287.091.23.205.117.796.117 2.438h.282c0-1.648-.11-2.238.12-2.442.173-.152.538-.087 1.285-.087v6.464h-1.358v-3.385h-.433v3.385Z" fill="#fff"/></g><defs><clipPath id="a"><path fill="#fff" d="M0 0h42.853v45.8H0z"/></clipPath></defs></svg>