<svg width="44" height="42" fill="none" xmlns="http://www.w3.org/2000/svg"><path d="M2 40h40" stroke="#fff" stroke-width="4" stroke-linecap="round" stroke-linejoin="round"/><path d="M12 24H8a2 2 0 0 0-2 2v12a2 2 0 0 0 2 2h4a2 2 0 0 0 2-2V26a2 2 0 0 0-2-2Z" stroke="#fff" stroke-width="4" stroke-linejoin="round"/><path d="M10 32h1" stroke="#fff" stroke-width="4" stroke-linecap="square" stroke-linejoin="round"/><path d="M36 2H16a2 2 0 0 0-2 2v34a2 2 0 0 0 2 2h20a2 2 0 0 0 2-2V4a2 2 0 0 0-2-2Z" stroke="#fff" stroke-width="4" stroke-linejoin="round"/><path d="M20 8h4v4h-4V8Zm8 0h4v4h-4V8Zm-8 7h4v4h-4v-4Zm8 0h4v4h-4v-4Zm0 7h4v4h-4v-4Zm0 7h4v4h-4v-4Z" fill="#fff"/></svg>