<svg width="44" height="36" fill="none" xmlns="http://www.w3.org/2000/svg"><mask id="a" style="mask-type:luminance" maskUnits="userSpaceOnUse" x="0" y="0" width="44" height="36"><path d="M42 5a3 3 0 0 0-3-3H5a3 3 0 0 0-3 3v9h40V5Z" fill="#fff" stroke="#fff" stroke-width="4" stroke-linecap="round" stroke-linejoin="round"/><path d="m2.112 33.03 12.176-12.3 6.58 6.3L28.91 20l4.48 4.368" stroke="#fff" stroke-width="4" stroke-linecap="round" stroke-linejoin="round"/><path d="M42 12v19a3 3 0 0 1-3 3H10" stroke="#fff" stroke-width="4" stroke-linecap="round" stroke-linejoin="round"/><path d="M17.112 8h18M9.11 8h2" stroke="#000" stroke-width="4" stroke-linecap="round" stroke-linejoin="round"/><path d="M2 12v9" stroke="#fff" stroke-width="4" stroke-linecap="round" stroke-linejoin="round"/></mask><g mask="url(#a)"><path d="M-2-6h48v48H-2V-6Z" fill="#fff"/></g></svg>