<svg xmlns="http://www.w3.org/2000/svg" xmlns:xlink="http://www.w3.org/1999/xlink"><symbol id="mail"><path fill-rule="evenodd" clip-rule="evenodd" d="m128.02 158.312 50.516 34.54 48.695-33.594 109.152 107.689a29.686 29.686 0 0 1-9.139 1.428H29.756c-3.927 0-7.675-.768-11.12-2.142L128.02 158.312ZM357 69.812v168.807c0 4.409-.964 8.586-2.677 12.352L247.33 145.406 357 69.812ZM0 70.758l107.85 73.756L1.892 249.079A29.683 29.683 0 0 1 0 238.619V70.758ZM327.244.625C343.666.625 357 13.941 357 30.381v10.46L178.464 163.917 0 41.858V30.381C0 13.959 13.316.625 29.756.625h297.488Z" fill="#fff"/></symbol><symbol id="skype"><path d="M435.16 271.6a205.697 205.697 0 0 0 4.9-45.15c0-116.32-95.69-210.7-213.79-210.7a221.834 221.834 0 0 0-36.52 3A123.578 123.578 0 0 0 123.93 0C55.55 0 0 54.72 0 122.15A119.56 119.56 0 0 0 17 184a211.166 211.166 0 0 0-4.32 42.35c0 116.44 95.69 210.7 213.67 210.7a213.966 213.966 0 0 0 39.09-3.5A125.454 125.454 0 0 0 324.07 448C392.57 448 448 393.28 448 325.85a118.001 118.001 0 0 0-12.84-54.25ZM336 327c-9.92 13.76-24.51 24.73-43.41 32.43-18.9 7.7-41.23 11.57-66.9 11.57-30.69 0-56.36-5.37-76.55-15.87a101.005 101.005 0 0 1-35.24-30.8c-9.11-12.83-13.66-25.66-13.66-38 0-7.7 3-14.35 8.87-19.95 5.84-5.37 13.42-8.17 22.29-8.17 7.35 0 13.65 2.1 18.79 6.42 4.9 4.08 9.1 10.15 12.48 18.08A108.06 108.06 0 0 0 175 304.15c4.213 5.48 10.167 10.03 17.86 13.65 7.82 3.62 18.2 5.48 31 5.48 17.62 0 32.09-3.73 42.94-11.08 10.74-7.12 15.88-15.75 15.88-26.25 0-8.28-2.69-14.82-8.29-19.95-5.83-5.37-13.42-9.57-22.87-12.37-9.69-3-22.87-6.18-39.21-9.56-22.17-4.67-41-10.27-56-16.57-15.28-6.42-27.65-15.4-36.76-26.48-9.22-11.32-13.77-25.55-13.77-42.24a67.858 67.858 0 0 1 14.47-42.58c9.57-12.25 23.46-21.82 41.55-28.35 17.74-6.53 38.86-9.8 62.66-9.8 19.14 0 35.83 2.22 49.83 6.42 14 4.2 25.91 10.15 35.36 17.38 9.45 7.23 16.34 14.93 20.77 23s6.66 16.22 6.66 24c0 7.46-2.92 14.35-8.76 20.3a29.647 29.647 0 0 1-21.94 9.1c-7.93 0-14.12-1.87-18.43-5.6-4-3.5-8.17-8.87-12.72-16.69-5.37-9.91-11.79-17.85-19.14-23.45-7.24-5.36-19.14-8.16-35.71-8.16-15.29 0-27.77 3-37 9-8.87 5.72-13.19 12.37-13.19 20.18a18.26 18.26 0 0 0 4.32 12.25 38.136 38.136 0 0 0 12.72 9.57 90.205 90.205 0 0 0 17.15 6.53c6 1.64 15.87 4.09 29.53 7.12 17.38 3.62 33.25 7.82 47.26 12.13 14.24 4.55 26.49 10 36.52 16.45a72.927 72.927 0 0 1 24.16 25.09c5.72 10 8.64 22.63 8.64 37.1A75.09 75.09 0 0 1 336 327Z"/></symbol><symbol id="telegram"><path d="M470.435 5.423 16.827 181.249c-18.254 8.188-24.428 24.585-4.412 33.484l116.37 37.173 281.368-174.79c15.363-10.973 31.091-8.047 17.557 4.024L186.053 301.075l-7.591 93.076c7.031 14.371 19.905 14.438 28.117 7.295l66.858-63.589 114.505 86.187c26.595 15.826 41.066 5.613 46.788-23.394l75.105-357.47c7.798-35.705-5.5-51.437-39.4-37.757Z"/></symbol><symbol id="whatsapp"><path fill-rule="evenodd" clip-rule="evenodd" d="M382.73 65.101A222.132 222.132 0 0 0 224.94.001c-122.94 0-223.02 99.58-223.07 222a220.61 220.61 0 0 0 29.78 111L0 448.001l118.25-30.87a223.632 223.632 0 0 0 106.6 27h.09c122.93 0 223-99.59 223.06-222a220.19 220.19 0 0 0-65.27-157.03Zm-157.79 341.56h-.08a185.744 185.744 0 0 1-94.36-25.72l-6.77-4-70.17 18.32 18.73-68.09-4.41-7a183.46 183.46 0 0 1-28.35-98.17c0-101.73 83.21-184.5 185.48-184.5a185 185 0 0 1 185.33 184.64c-.04 101.74-83.21 184.52-185.4 184.52Zm101.69-138.19c-5.57-2.78-33-16.2-38.08-18.05-5.08-1.85-8.83-2.78-12.54 2.78-3.71 5.56-14.4 18-17.65 21.75-3.25 3.75-6.5 4.16-12.07 1.38-5.57-2.78-23.54-8.63-44.83-27.53-16.57-14.71-27.75-32.87-31-38.42-3.25-5.55-.35-8.56 2.44-11.32 2.51-2.49 5.57-6.48 8.36-9.72 2.79-3.24 3.72-5.56 5.57-9.26s.93-6.94-.46-9.71c-1.39-2.77-12.54-30.08-17.18-41.19-4.53-10.82-9.12-9.35-12.54-9.52-3.25-.16-7-.2-10.69-.2a20.524 20.524 0 0 0-14.86 6.94c-5.11 5.56-19.51 19-19.51 46.28s20 53.68 22.76 57.38c2.76 3.7 39.3 59.73 95.21 83.76a323.09 323.09 0 0 0 31.78 11.68c13.35 4.22 25.5 3.63 35.1 2.2 10.71-1.59 33-13.42 37.63-26.38 4.63-12.96 4.64-24.06 3.25-26.37-1.39-2.31-5.11-3.71-10.69-6.48Z"/></symbol><symbol id="youtube"><path d="M508.646 84.79c0-45-33.1-81.2-74-81.2C379.246 1 322.746 0 265.006 0h-18c-57.6 0-114.2 1-169.6 3.6-40.8 0-73.9 36.4-73.9 81.4-2.5 35.59-3.56 71.19-3.5 106.79-.1 35.6 1.033 71.233 3.4 106.9 0 45 33.1 81.5 73.9 81.5 58.2 2.7 117.9 3.9 178.6 3.8 60.8.2 120.333-1.067 178.6-3.8 40.9 0 74-36.5 74-81.5 2.4-35.7 3.5-71.3 3.4-107 .227-35.6-.86-71.233-3.26-106.9Zm-301.64 205.1V93.39l145 98.2-145 98.3Z"/></symbol></svg>